<svg width="348" height="99" viewBox="0 0 348 99" fill="none" xmlns="http://www.w3.org/2000/svg">
<path fill-rule="evenodd" clip-rule="evenodd" d="M340.343 73.039L215.667 86.7656C215.667 86.7656 304.997 82.1132 343.945 77.1312C341.231 87.0952 333.483 92.6587 333.483 92.6587C242.443 106.589 12.6197 92.6587 12.6197 92.6587L4.41399 45.2312L29.1358 43.1957L39.1636 45.4018H92.2089L53.6423 42.9845L31.6771 36.9634L0.812251 39.9061L0.00195312 19.8116C119.515 9.91161 347.601 6.96313 347.601 6.96313C348.239 29.4149 344.032 57.2441 340.343 73.039Z" fill="url(#paint0_linear_2104_21521)"/>
<path fill-rule="evenodd" clip-rule="evenodd" d="M0 19.8193L2.48904 13.3912L11.5942 6.9631C11.5942 6.9631 256.111 5.35609 340.735 0L347.607 6.9631C347.607 6.9631 138.475 10.404 0 19.8193Z" fill="#FF8B3E"/>
<path fill-rule="evenodd" clip-rule="evenodd" d="M2.48904 13.3912C2.48904 13.3912 84.3211 11.6912 168.642 11.6912L0 19.8193L2.48904 13.3912Z" fill="#E06834"/>
<path fill-rule="evenodd" clip-rule="evenodd" d="M4.41406 45.2312L9.71975 42.8507L29.6709 41.3774L39.1734 43.3043L62.6177 43.5466L92.2109 45.4018H68.0009L39.0086 47.4178L30.0159 43.3896L4.41406 45.2312Z" fill="#E6774F"/>
<path fill-rule="evenodd" clip-rule="evenodd" d="M0.813965 39.9041L9.71946 42.8506L29.6706 41.3774L39.1731 43.3042L61.7742 44.2909L92.2106 45.4017L54.1752 42.3292L31.6789 36.9634L0.813965 39.9041Z" fill="#892334"/>
<path fill-rule="evenodd" clip-rule="evenodd" d="M92.2109 45.4017L123.403 47.2705L208.515 46.3361L92.2109 45.4017Z" fill="#892334"/>
<path fill-rule="evenodd" clip-rule="evenodd" d="M329.383 74.2448L343.945 77.1312L289.847 83.9605L215.667 86.7656L329.383 74.2448Z" fill="#681826"/>
<path fill-rule="evenodd" clip-rule="evenodd" d="M59.01 95.0372L114.701 94.0931L191.829 98.7785C191.829 98.7785 97.5475 96.9738 59.01 95.0372Z" fill="#801B34"/>
<path fill-rule="evenodd" clip-rule="evenodd" d="M345.746 41.1816L262.255 45.1246L318.502 43.3896L345.746 41.1816Z" fill="#801B34"/>
<path fill-rule="evenodd" clip-rule="evenodd" d="M159.894 46.8692L165.919 48.61L179.376 46.656L159.894 46.8692Z" fill="#E6774F"/>
<path opacity="0.4" fill-rule="evenodd" clip-rule="evenodd" d="M145.789 94.0931C145.789 94.0931 162.883 67.9388 202.363 60.9854C202.363 60.9854 166.836 68.4738 145.789 94.0931Z" fill="#D9772F"/>
<path opacity="0.4" fill-rule="evenodd" clip-rule="evenodd" d="M42.1489 79.6784C42.1489 79.6784 75.5533 56.6005 90.4856 35.6704C90.4856 35.6704 62.794 63.9474 42.1489 79.6784Z" fill="#D9772F"/>
<path opacity="0.4" fill-rule="evenodd" clip-rule="evenodd" d="M179.376 38.867C179.376 38.867 203.88 32.28 232.669 36.9634C261.458 41.6468 286.042 55.5847 298.454 62.7766C298.454 62.7766 286.734 54.2355 263.133 44.3918C239.533 34.548 204.082 31.9369 179.376 38.867Z" fill="#D9772F"/>
<path opacity="0.4" fill-rule="evenodd" clip-rule="evenodd" d="M198.524 21.4185C198.524 21.4185 238.012 11.3615 346.582 33.2996C346.582 33.2996 267.886 11.6911 198.524 21.4185Z" fill="#D9772F"/>
<path fill-rule="evenodd" clip-rule="evenodd" d="M313.951 1.37244L326.855 7.35466L323.475 15.7561L323.19 8.56431L313.951 1.37244Z" fill="#892334"/>
<path fill-rule="evenodd" clip-rule="evenodd" d="M48.3115 41.3774L57.2558 35.6704L53.6444 42.9844L48.3115 41.3774Z" fill="#892334"/>
<path fill-rule="evenodd" clip-rule="evenodd" d="M9.95215 77.2437L20.075 83.5573L9.95215 79.6784V77.2437Z" fill="#892334"/>
<path fill-rule="evenodd" clip-rule="evenodd" d="M93.812 86.7656L103.051 80.4015L97.0241 86.7656H93.812Z" fill="#801B34"/>
<path fill-rule="evenodd" clip-rule="evenodd" d="M270.299 97.8228L262.255 92.6644L274.857 97.6386L270.299 97.8228Z" fill="#801B34"/>
<path fill-rule="evenodd" clip-rule="evenodd" d="M93.812 86.7656L96.4716 86.1182L103.051 80.4015L97.0241 86.7656H93.812Z" fill="#DC634F"/>
<path fill-rule="evenodd" clip-rule="evenodd" d="M9.95215 79.6783L10.6597 81.3358L20.075 83.5573L9.95215 79.6783Z" fill="#DC634F"/>
<path fill-rule="evenodd" clip-rule="evenodd" d="M264.484 94.0931L267.618 97.8228L269.493 97.974L264.484 94.0931Z" fill="#DC634F"/>
<path fill-rule="evenodd" clip-rule="evenodd" d="M66.3162 16.6227H101.845L228.183 11.6911L323.19 8.56431L321.771 7.45935L139.809 13.081L66.3162 16.6227Z" fill="#B64034"/>
<path fill-rule="evenodd" clip-rule="evenodd" d="M326.855 7.35461L343.945 8.56426L345.748 22.7813L343.544 39.1035L336.302 41.1835H345.748C345.748 41.1835 349.127 18.7511 347.607 6.96692L326.855 7.35461Z" fill="#B64034"/>
<path fill-rule="evenodd" clip-rule="evenodd" d="M12.6198 92.6587L10.6599 81.3359L11.6408 79.6785L9.95237 77.2437V66.9871L4.41406 45.2312L9.45224 79.6785L12.6198 92.6587Z" fill="#8E2634"/>
<path fill-rule="evenodd" clip-rule="evenodd" d="M331.304 74.0334L341.158 69.1018L340.343 73.0389L331.304 74.0334Z" fill="#8E2634"/>
<path fill-rule="evenodd" clip-rule="evenodd" d="M311.859 95.2426L337.428 88.9308L333.483 92.6585L311.859 95.2426Z" fill="#801B34"/>
<path fill-rule="evenodd" clip-rule="evenodd" d="M322.534 0.988658L336.527 1.37248L342.352 4.03213L342.854 6.96313L347.607 6.96509L340.735 0.00195312L322.534 0.988658Z" fill="#FCCA70"/>
<path fill-rule="evenodd" clip-rule="evenodd" d="M2.48926 13.3912L24.9624 12.9821L15.1903 11.6911L8.56259 12.042L7.4906 11.1289L11.1738 7.45934L16.1945 8.38401L21.0815 7.45934L37.0179 6.76147L11.5944 6.96504L2.48926 13.3912Z" fill="#FCCA70"/>
<defs>
<linearGradient id="paint0_linear_2104_21521" x1="173.836" y1="98.8499" x2="173.836" y2="6.96236" gradientUnits="userSpaceOnUse">
<stop stop-color="#6B2617"/>
<stop offset="1" stop-color="#D65731"/>
</linearGradient>
</defs>
</svg>
